<svg xmlns="http://www.w3.org/2000/svg" id="Layer_2" data-name="Layer 2" viewBox="0 0 323.94 101.99"><defs><style>      .cls-1 {        fill: #1c3161;      }      .cls-1, .cls-2, .cls-3, .cls-4 {        stroke-width: 0px;      }      .cls-2 {        fill: #fff;      }      .cls-3 {        fill: #5da4c7;      }      .cls-4 {        fill: #192b5c;      }    </style></defs><g id="OBJECTS"><g><g><path class="cls-4" d="M99.26,67.7c-4.68,0-8.83-.95-12.45-2.84s-6.48-4.5-8.55-7.84c-2.08-3.34-3.11-7.16-3.11-11.47s1.04-8.12,3.11-11.43c2.08-3.31,4.93-5.9,8.55-7.76,3.62-1.86,7.78-2.8,12.45-2.8s8.84.93,12.49,2.8c3.65,1.87,6.5,4.45,8.55,7.76,2.05,3.31,3.07,7.12,3.07,11.43s-1.02,8.13-3.07,11.47c-2.05,3.34-4.9,5.95-8.55,7.84-3.65,1.89-7.82,2.84-12.49,2.84ZM99.26,55.8c1.73,0,3.27-.39,4.61-1.18s2.4-1.96,3.19-3.51c.79-1.55,1.18-3.4,1.18-5.56s-.39-3.98-1.18-5.48-1.85-2.64-3.19-3.43-2.88-1.18-4.61-1.18-3.19.39-4.53,1.18-2.42,1.93-3.23,3.43c-.82,1.5-1.22,3.32-1.22,5.48s.41,4.01,1.22,5.56c.81,1.55,1.89,2.72,3.23,3.51s2.85,1.18,4.53,1.18Z"></path><path class="cls-4" d="M162.07,23.56c3.31,0,6.31.67,8.99,2.01,2.68,1.34,4.79,3.4,6.34,6.19,1.55,2.79,2.33,6.38,2.33,10.8v24.43h-14.97v-21.99c0-3.05-.62-5.27-1.85-6.66-1.24-1.39-2.96-2.09-5.16-2.09-1.58,0-3.02.35-4.33,1.06-1.31.71-2.34,1.8-3.07,3.27-.74,1.47-1.1,3.39-1.1,5.75v20.65h-14.97V24.27h14.26v12.14l-2.76-3.55c1.63-3.1,3.86-5.42,6.7-6.97,2.84-1.55,6.04-2.33,9.61-2.33Z"></path><path class="cls-4" d="M188.55,37.04v-11.19h30.97v11.19h-30.97ZM212.11,67.7c-5.47,0-9.72-1.35-12.77-4.06-3.05-2.71-4.57-6.79-4.57-12.25V14.74h14.97v36.49c0,1.52.42,2.72,1.26,3.59.84.87,1.92,1.3,3.23,1.3,1.79,0,3.31-.45,4.57-1.34l3.7,10.48c-1.26.84-2.81,1.46-4.65,1.85-1.84.39-3.76.59-5.75.59Z"></path><path class="cls-4" d="M245.69,67.7c-3.42,0-6.31-.58-8.67-1.73-2.36-1.16-4.16-2.73-5.4-4.73-1.23-2-1.85-4.23-1.85-6.7,0-2.63.67-4.9,2.01-6.82,1.34-1.92,3.4-3.39,6.19-4.41,2.78-1.02,6.38-1.54,10.8-1.54h10.09v7.8h-8.04c-2.42,0-4.11.39-5.08,1.18-.97.79-1.46,1.84-1.46,3.15s.5,2.36,1.5,3.15,2.36,1.18,4.1,1.18c1.63,0,3.11-.41,4.45-1.22,1.34-.81,2.32-2.06,2.96-3.74l2.05,5.52c-.79,2.94-2.33,5.16-4.61,6.66-2.29,1.5-5.29,2.25-9.02,2.25ZM258.3,66.99v-7.96l-1.02-1.97v-14.66c0-2.36-.72-4.19-2.17-5.48-1.45-1.29-3.74-1.93-6.9-1.93-2.05,0-4.12.33-6.23.99-2.1.66-3.89,1.56-5.36,2.72l-5.04-10.17c2.42-1.58,5.32-2.8,8.71-3.67,3.39-.87,6.76-1.3,10.13-1.3,6.94,0,12.31,1.59,16.12,4.77,3.81,3.18,5.71,8.16,5.71,14.94v23.72h-13.95Z"></path><path class="cls-4" d="M301.17,67.7c-3.62,0-7.16-.42-10.6-1.26-3.44-.84-6.21-1.89-8.31-3.15l4.49-10.25c2,1.21,4.33,2.17,7.01,2.88,2.68.71,5.31,1.06,7.88,1.06s4.27-.26,5.24-.79c.97-.52,1.46-1.23,1.46-2.13,0-.84-.46-1.46-1.38-1.85-.92-.39-2.13-.7-3.62-.91-1.5-.21-3.14-.45-4.93-.71-1.79-.26-3.59-.62-5.4-1.06-1.81-.45-3.47-1.13-4.96-2.05-1.5-.92-2.69-2.17-3.59-3.74-.89-1.58-1.34-3.57-1.34-5.99,0-2.73.8-5.16,2.4-7.29,1.6-2.13,3.95-3.81,7.05-5.04,3.1-1.23,6.88-1.85,11.35-1.85,2.99,0,6.03.3,9.1.91,3.07.6,5.66,1.51,7.76,2.72l-4.49,10.17c-2.1-1.21-4.21-2.04-6.3-2.48-2.1-.45-4.1-.67-5.99-.67-2.52,0-4.29.29-5.32.87-1.02.58-1.54,1.29-1.54,2.13s.45,1.48,1.34,1.93c.89.45,2.09.79,3.58,1.02,1.5.24,3.14.47,4.93.71s3.59.59,5.4,1.06c1.81.47,3.47,1.17,4.96,2.09,1.5.92,2.69,2.16,3.59,3.7.89,1.55,1.34,3.53,1.34,5.95,0,2.63-.8,4.99-2.4,7.09-1.6,2.1-3.97,3.78-7.09,5.04-3.13,1.26-7,1.89-11.62,1.89Z"></path></g><g><path class="cls-1" d="M4.04,98.49l4.17-9.26h1.69l4.18,9.26h-1.8l-3.59-8.35h.69l-3.57,8.35h-1.77ZM5.96,96.34l.46-1.35h5l.46,1.35h-5.93Z"></path><path class="cls-1" d="M21.47,98.58c-.74,0-1.4-.16-1.98-.47s-1.03-.74-1.36-1.29-.49-1.17-.49-1.87.16-1.33.49-1.87c.33-.54.78-.97,1.36-1.28.58-.31,1.24-.46,1.98-.46.69,0,1.29.14,1.82.42.52.28.92.69,1.2,1.22l-1.27.74c-.21-.33-.47-.58-.77-.74-.3-.16-.63-.24-.99-.24-.41,0-.77.09-1.1.26-.33.18-.58.43-.77.76-.19.33-.28.73-.28,1.18s.09.85.28,1.18c.18.33.44.58.77.76.33.18.69.26,1.1.26.35,0,.68-.08.99-.24.3-.16.56-.41.77-.74l1.27.74c-.27.53-.67.94-1.2,1.22-.53.29-1.13.43-1.82.43Z"></path><path class="cls-1" d="M32.24,98.58c-.74,0-1.4-.16-1.98-.47s-1.03-.74-1.36-1.29-.49-1.17-.49-1.87.16-1.33.49-1.87c.33-.54.78-.97,1.36-1.28.58-.31,1.24-.46,1.98-.46.69,0,1.29.14,1.82.42.52.28.92.69,1.2,1.22l-1.27.74c-.21-.33-.47-.58-.77-.74-.3-.16-.63-.24-.99-.24-.41,0-.77.09-1.1.26-.33.18-.58.43-.77.76-.19.33-.28.73-.28,1.18s.09.85.28,1.18c.18.33.44.58.77.76.33.18.69.26,1.1.26.35,0,.68-.08.99-.24.3-.16.56-.41.77-.74l1.27.74c-.27.53-.67.94-1.2,1.22-.53.29-1.13.43-1.82.43Z"></path><path class="cls-1" d="M42.94,98.58c-.72,0-1.37-.16-1.93-.47s-1.01-.74-1.34-1.29-.49-1.17-.49-1.87.16-1.33.49-1.87c.33-.54.77-.97,1.34-1.28.56-.31,1.21-.46,1.93-.46s1.38.15,1.95.46c.57.31,1.01.73,1.34,1.27s.48,1.16.48,1.88-.16,1.32-.48,1.87-.77.98-1.34,1.29c-.57.31-1.22.47-1.95.47ZM42.94,97.16c.41,0,.77-.09,1.08-.26s.57-.43.75-.77c.18-.33.27-.73.27-1.18s-.09-.85-.27-1.18c-.18-.33-.43-.58-.75-.76-.32-.18-.67-.26-1.07-.26s-.77.09-1.08.26c-.31.18-.56.43-.75.76-.19.33-.28.73-.28,1.18s.09.84.28,1.18c.18.34.43.59.75.77.31.18.67.26,1.07.26Z"></path><path class="cls-1" d="M54.48,98.58c-.6,0-1.13-.11-1.59-.34-.46-.22-.82-.57-1.07-1.03-.26-.46-.38-1.05-.38-1.75v-4.04h1.65v3.81c0,.63.14,1.11.43,1.42.29.31.69.47,1.22.47.39,0,.73-.08,1.01-.24.29-.16.51-.4.67-.71s.25-.71.25-1.18v-3.57h1.65v7.07h-1.57v-1.91l.28.58c-.24.46-.59.81-1.05,1.05-.46.24-.96.36-1.51.36Z"></path><path class="cls-1" d="M67.7,91.34c.56,0,1.07.11,1.51.33s.8.56,1.05,1.01c.26.46.38,1.04.38,1.75v4.05h-1.65v-3.84c0-.63-.15-1.09-.44-1.4-.3-.31-.71-.46-1.24-.46-.39,0-.73.08-1.03.24-.3.16-.53.39-.69.71-.16.31-.25.71-.25,1.18v3.57h-1.65v-7.07h1.58v1.91l-.28-.58c.25-.45.61-.8,1.08-1.04.47-.24,1.02-.36,1.63-.36Z"></path><path class="cls-1" d="M75.01,92.8v-1.32h4.71v1.32h-4.71ZM78.6,98.58c-.78,0-1.38-.2-1.8-.6-.42-.4-.64-.99-.64-1.78v-6.34h1.65v6.3c0,.34.09.6.26.78.17.18.41.28.72.28.37,0,.68-.1.93-.29l.46,1.18c-.19.16-.43.28-.71.36s-.57.12-.87.12Z"></path><path class="cls-1" d="M85.58,90.26c-.31,0-.56-.1-.76-.29-.2-.19-.3-.43-.3-.7s.1-.52.3-.71c.2-.19.45-.29.76-.29s.56.09.76.27.3.41.3.68c0,.29-.1.54-.29.73-.19.2-.45.3-.77.3ZM84.74,98.49v-7.07h1.65v7.07h-1.65Z"></path><path class="cls-1" d="M95.77,91.34c.56,0,1.07.11,1.51.33s.8.56,1.05,1.01c.26.46.38,1.04.38,1.75v4.05h-1.65v-3.84c0-.63-.15-1.09-.44-1.4-.3-.31-.71-.46-1.24-.46-.39,0-.73.08-1.03.24-.3.16-.53.39-.69.71-.16.31-.25.71-.25,1.18v3.57h-1.65v-7.07h1.58v1.91l-.28-.58c.25-.45.61-.8,1.08-1.04.47-.24,1.02-.36,1.63-.36Z"></path><path class="cls-1" d="M107.01,98.17c-.67,0-1.28-.14-1.82-.43-.54-.29-.97-.69-1.28-1.2-.31-.51-.47-1.11-.47-1.8s.16-1.27.47-1.79c.31-.51.74-.91,1.28-1.19.54-.28,1.15-.42,1.82-.42.6,0,1.14.12,1.61.36.48.24.86.61,1.15,1.11.29.5.43,1.15.43,1.93s-.14,1.43-.43,1.94c-.29.51-.67.88-1.15,1.12-.48.24-1.01.36-1.61.36ZM107.23,101.15c-.65,0-1.29-.09-1.91-.26s-1.13-.42-1.53-.75l.74-1.24c.31.26.7.46,1.17.62s.95.23,1.44.23c.78,0,1.35-.18,1.71-.54.36-.36.54-.89.54-1.61v-1.26l.13-1.6-.05-1.6v-1.72h1.58v5.99c0,1.28-.33,2.22-.98,2.83-.65.6-1.6.91-2.83.91ZM107.27,96.77c.41,0,.79-.09,1.11-.26s.58-.41.76-.71c.18-.3.27-.66.27-1.05s-.09-.75-.27-1.05-.43-.54-.76-.7-.7-.25-1.11-.25-.79.08-1.12.25-.59.4-.77.7-.27.66-.27,1.05.09.75.27,1.05c.18.3.44.54.77.71s.7.26,1.12.26Z"></path><path class="cls-1" d="M123.4,101.05v-12.39h1.52v12.39h-1.52Z"></path><path class="cls-1" d="M139.31,98.49v-7.81h-3.07v-1.46h7.86v1.46h-3.07v7.81h-1.72Z"></path><path class="cls-1" d="M150.19,98.58c-.53,0-.99-.09-1.39-.27-.4-.18-.7-.43-.92-.75s-.32-.69-.32-1.09.09-.75.29-1.07c.19-.32.5-.57.93-.75.43-.19,1.01-.28,1.72-.28h2.05v1.1h-1.93c-.56,0-.94.09-1.14.27s-.29.4-.29.67c0,.3.12.54.36.71s.57.26.99.26.77-.09,1.09-.28c.32-.18.55-.46.69-.82l.28.99c-.16.42-.44.74-.85.97s-.93.34-1.55.34ZM152.41,98.49v-1.43l-.09-.3v-2.5c0-.49-.15-.86-.44-1.13-.29-.27-.73-.4-1.32-.4-.4,0-.79.06-1.17.19-.38.12-.71.3-.97.52l-.65-1.2c.38-.29.83-.51,1.36-.65.52-.15,1.07-.22,1.63-.22,1.02,0,1.82.25,2.38.73.56.49.84,1.25.84,2.27v4.14h-1.56Z"></path><path class="cls-1" d="M158.32,98.49l3.11-4.05-.03.89-2.96-3.9h1.84l2.08,2.78h-.7l2.09-2.78h1.79l-2.99,3.9v-.89s3.11,4.05,3.11,4.05h-1.87l-2.18-2.95.69.09-2.14,2.86h-1.83Z"></path><path class="cls-1" d="M172.05,98.58c-.53,0-.99-.09-1.39-.27-.4-.18-.7-.43-.92-.75s-.32-.69-.32-1.09.09-.75.29-1.07c.19-.32.5-.57.93-.75.43-.19,1.01-.28,1.72-.28h2.05v1.1h-1.93c-.56,0-.94.09-1.14.27s-.29.4-.29.67c0,.3.12.54.36.71s.57.26.99.26.77-.09,1.09-.28c.32-.18.55-.46.69-.82l.28.99c-.16.42-.44.74-.85.97s-.93.34-1.55.34ZM174.27,98.49v-1.43l-.09-.3v-2.5c0-.49-.15-.86-.44-1.13-.29-.27-.73-.4-1.32-.4-.4,0-.79.06-1.17.19-.38.12-.71.3-.97.52l-.65-1.2c.38-.29.83-.51,1.36-.65.52-.15,1.07-.22,1.63-.22,1.02,0,1.82.25,2.38.73.56.49.84,1.25.84,2.27v4.14h-1.56Z"></path><path class="cls-1" d="M180.2,92.8v-1.32h4.71v1.32h-4.71ZM183.8,98.58c-.78,0-1.38-.2-1.8-.6-.42-.4-.64-.99-.64-1.78v-6.34h1.65v6.3c0,.34.09.6.26.78.17.18.41.28.72.28.37,0,.68-.1.93-.29l.46,1.18c-.19.16-.43.28-.71.36s-.57.12-.87.12Z"></path><path class="cls-1" d="M190.77,90.26c-.31,0-.56-.1-.76-.29-.2-.19-.3-.43-.3-.7s.1-.52.3-.71c.2-.19.45-.29.76-.29s.56.09.76.27.3.41.3.68c0,.29-.1.54-.29.73-.19.2-.45.3-.77.3ZM189.94,98.49v-7.07h1.65v7.07h-1.65Z"></path><path class="cls-1" d="M200.13,98.58c-.72,0-1.37-.16-1.93-.47s-1.01-.74-1.34-1.29-.49-1.17-.49-1.87.16-1.33.49-1.87c.33-.54.77-.97,1.34-1.28.56-.31,1.21-.46,1.93-.46s1.38.15,1.95.46c.57.31,1.01.73,1.34,1.27s.48,1.16.48,1.88-.16,1.32-.48,1.87-.77.98-1.34,1.29c-.57.31-1.22.47-1.95.47ZM200.13,97.16c.41,0,.77-.09,1.08-.26s.57-.43.75-.77c.18-.33.27-.73.27-1.18s-.09-.85-.27-1.18c-.18-.33-.43-.58-.75-.76-.32-.18-.67-.26-1.07-.26s-.77.09-1.08.26c-.31.18-.56.43-.75.76-.19.33-.28.73-.28,1.18s.09.84.28,1.18c.18.34.43.59.75.77.31.18.67.26,1.07.26Z"></path><path class="cls-1" d="M212.69,91.34c.56,0,1.07.11,1.51.33s.8.56,1.05,1.01c.26.46.38,1.04.38,1.75v4.05h-1.65v-3.84c0-.63-.15-1.09-.44-1.4-.3-.31-.71-.46-1.24-.46-.39,0-.73.08-1.03.24-.3.16-.53.39-.69.71-.16.31-.25.71-.25,1.18v3.57h-1.65v-7.07h1.58v1.91l-.28-.58c.25-.45.61-.8,1.08-1.04.47-.24,1.02-.36,1.63-.36Z"></path><path class="cls-1" d="M227.93,101.05v-12.39h1.52v12.39h-1.52Z"></path><path class="cls-1" d="M240.66,98.49l4.17-9.26h1.69l4.18,9.26h-1.8l-3.59-8.35h.69l-3.57,8.35h-1.77ZM242.58,96.34l.46-1.35h5l.46,1.35h-5.93Z"></path><path class="cls-1" d="M257.83,98.58c-.68,0-1.29-.15-1.83-.46-.54-.3-.97-.73-1.28-1.26s-.46-1.17-.46-1.91.15-1.37.46-1.91.73-.96,1.28-1.26c.54-.3,1.15-.45,1.83-.45.59,0,1.12.13,1.59.39.47.26.84.65,1.11,1.18.27.53.41,1.21.41,2.04s-.13,1.5-.4,2.03c-.26.53-.63.93-1.1,1.2-.47.26-1,.4-1.61.4ZM258.03,97.16c.4,0,.75-.09,1.06-.26.31-.18.56-.43.75-.77.19-.33.28-.73.28-1.18s-.09-.85-.28-1.18c-.19-.33-.44-.58-.75-.76-.31-.18-.67-.26-1.06-.26s-.75.09-1.07.26c-.31.18-.56.43-.75.76-.19.33-.29.73-.29,1.18s.09.84.29,1.18c.19.34.44.59.75.77.31.18.67.26,1.07.26ZM260.18,98.49v-1.67l.07-1.88-.13-1.88v-4.39h1.64v9.82h-1.57Z"></path><path class="cls-1" d="M269,98.49l-3.03-7.07h1.72l2.61,6.23h-.85l2.7-6.23h1.59l-3.03,7.07h-1.71Z"></path><path class="cls-1" d="M278.8,90.26c-.31,0-.56-.1-.76-.29-.2-.19-.3-.43-.3-.7s.1-.52.3-.71c.2-.19.45-.29.76-.29s.56.09.76.27.3.41.3.68c0,.29-.1.54-.29.73-.19.2-.45.3-.77.3ZM277.96,98.49v-7.07h1.65v7.07h-1.65Z"></path><path class="cls-1" d="M287.16,98.58c-.59,0-1.16-.08-1.7-.23-.54-.15-.97-.34-1.29-.56l.63-1.26c.32.2.7.37,1.14.5.44.13.88.2,1.32.2.52,0,.9-.07,1.13-.21.23-.14.35-.33.35-.57,0-.19-.08-.34-.24-.44-.16-.1-.37-.18-.62-.23s-.54-.1-.85-.15c-.31-.04-.63-.1-.94-.18-.31-.07-.6-.18-.85-.33-.26-.15-.46-.34-.62-.59-.16-.25-.24-.57-.24-.98,0-.45.13-.84.38-1.17.26-.33.62-.59,1.08-.77.46-.18,1.01-.27,1.65-.27.48,0,.96.05,1.44.16.48.11.89.26,1.2.45l-.64,1.26c-.33-.2-.67-.34-1.01-.42-.34-.08-.68-.11-1.01-.11-.5,0-.88.07-1.12.22s-.36.34-.36.57c0,.21.08.37.24.48.16.11.37.19.62.25s.54.11.85.15c.31.04.62.1.93.18.31.08.59.19.85.32.26.14.47.33.63.58s.24.57.24.97c0,.44-.13.83-.39,1.15-.26.33-.63.58-1.1.76s-1.05.27-1.71.27Z"></path><path class="cls-1" d="M298.15,98.58c-.72,0-1.37-.16-1.93-.47s-1.01-.74-1.34-1.29-.49-1.17-.49-1.87.16-1.33.49-1.87c.33-.54.77-.97,1.34-1.28.56-.31,1.21-.46,1.93-.46s1.38.15,1.95.46c.57.31,1.01.73,1.34,1.27s.48,1.16.48,1.88-.16,1.32-.48,1.87-.77.98-1.34,1.29c-.57.31-1.22.47-1.95.47ZM298.15,97.16c.41,0,.77-.09,1.08-.26s.57-.43.75-.77c.18-.33.27-.73.27-1.18s-.09-.85-.27-1.18c-.18-.33-.43-.58-.75-.76-.32-.18-.67-.26-1.07-.26s-.77.09-1.08.26c-.31.18-.56.43-.75.76-.19.33-.28.73-.28,1.18s.09.84.28,1.18c.18.34.43.59.75.77.31.18.67.26,1.07.26Z"></path><path class="cls-1" d="M306.7,98.49v-7.07h1.58v1.95l-.19-.57c.21-.48.54-.84,1-1.09.45-.25,1.02-.37,1.7-.37v1.57c-.07-.02-.14-.03-.2-.03-.06,0-.12,0-.19,0-.63,0-1.12.18-1.5.55s-.56.91-.56,1.63v3.43h-1.65Z"></path><path class="cls-1" d="M316.23,101.15c-.34,0-.69-.06-1.03-.17-.34-.11-.63-.27-.86-.48l.66-1.22c.17.15.36.27.57.36.21.09.43.13.65.13.3,0,.54-.08.73-.22.19-.15.36-.4.52-.75l.41-.93.13-.2,2.67-6.25h1.59l-3.31,7.64c-.22.53-.47.95-.73,1.26-.27.31-.57.52-.9.65-.33.12-.69.19-1.09.19ZM317.68,98.74l-3.19-7.32h1.72l2.59,6.1-1.12,1.22Z"></path></g><rect class="cls-3" y="9.24" width="69.95" height="69.95" rx="22.92" ry="22.92"></rect><path class="cls-2" d="M37.87,66.35c-3.3,0-6.34-.53-9.14-1.58s-5.22-2.55-7.27-4.5c-2.05-1.95-3.64-4.24-4.8-6.88-1.15-2.64-1.73-5.55-1.73-8.73s.58-6.09,1.73-8.73c1.15-2.64,2.75-4.93,4.8-6.88,2.04-1.95,4.47-3.44,7.27-4.5,2.8-1.05,5.85-1.58,9.14-1.58,3.85,0,7.3.68,10.33,2.03,3.04,1.35,5.57,3.3,7.6,5.84l-7.51,6.79c-1.35-1.59-2.83-2.8-4.44-3.63s-3.41-1.25-5.39-1.25c-1.71,0-3.28.28-4.71.83-1.43.56-2.65,1.36-3.66,2.41-1.01,1.05-1.81,2.31-2.38,3.78-.58,1.47-.86,3.1-.86,4.88s.29,3.42.86,4.89c.58,1.47,1.37,2.73,2.38,3.78,1.01,1.05,2.23,1.86,3.66,2.41,1.43.56,3,.83,4.71.83,1.99,0,3.78-.42,5.39-1.25s3.09-2.04,4.44-3.63l7.51,6.79c-2.03,2.5-4.56,4.44-7.6,5.81-3.04,1.37-6.48,2.06-10.33,2.06Z"></path></g></g></svg>